<?xml version="1.0" encoding="utf-8"?>
<!-- Generator: Adobe Illustrator 25.4.1, SVG Export Plug-In . SVG Version: 6.00 Build 0)  -->
<svg version="1.1" id="Layer_1" xmlns="http://www.w3.org/2000/svg" xmlns:xlink="http://www.w3.org/1999/xlink" x="0px" y="0px"
	 viewBox="0 0 400 400" style="enable-background:new 0 0 400 400;" xml:space="preserve">
<style type="text/css">
	.st0{fill:#7E7E7E;}
</style>
<path class="st0" d="M199.8,0.4C89.7,0.4,0.5,89.6,0.5,199.6c0,88,57.1,162.7,136.2,189c10,1.9,13.6-4.3,13.6-9.6
	c0-4.7-0.2-17.3-0.2-33.9c-55.4,12-67.1-26.7-67.1-26.7c-9.1-23-22.2-29.1-22.2-29.1c-18-12.4,1.4-12.1,1.4-12.1
	c20,1.4,30.5,20.5,30.5,20.5c17.8,30.5,46.6,21.7,58,16.6c1.8-12.9,6.9-21.7,12.6-26.6c-44.2-5-90.7-22.1-90.7-98.4
	c0-21.7,7.7-39.5,20.5-53.5c-2.2-5-9-25.3,1.7-52.7c0,0,16.7-5.3,54.8,20.4c15.9-4.4,32.9-6.6,49.8-6.7c16.9,0.1,33.9,2.3,49.8,6.7
	C287.2,77.7,303.8,83,303.8,83c10.7,27.4,4,47.7,2,52.7c12.7,13.9,20.4,31.7,20.4,53.5c0,76.5-46.6,93.4-90.9,98.3
	c7,6,13.4,18.2,13.4,36.9c0,26.7-0.2,48.1-0.2,54.6c0,5.2,3.5,11.5,13.7,9.5C342,362.3,399,287.6,399,199.6
	C399,89.6,309.8,0.4,199.8,0.4"/>
</svg>
