<?xml version="1.0" encoding="utf-8"?>
<!-- Generator: Adobe Illustrator 25.4.1, SVG Export Plug-In . SVG Version: 6.00 Build 0)  -->
<svg version="1.1" id="Layer_1" xmlns="http://www.w3.org/2000/svg" xmlns:xlink="http://www.w3.org/1999/xlink" x="0px" y="0px"
	 viewBox="0 0 480 480" style="enable-background:new 0 0 480 480;" xml:space="preserve">
<style type="text/css">
	.st0{fill:#7E7E7E;}
	.st1{fill:#C74343;}
	.st2{fill:#FFFFFF;}
</style>
<path class="st0" d="M451.5,346.1c-4.5,23.5-23.8,41.4-47.6,44.8c-37.4,5.6-93.8,11.1-164.1,11.1c-69.2,0-126.7-6.4-165.3-12
	c-23.8-3.4-43.1-21.3-47.6-44.8c-4.5-25.8-8.8-57.8-8.8-104.9s4.8-80.6,9.3-106.4c4.5-23.5,23.8-41.4,47.6-44.8
	c37.4-5.6,94.9-12.6,165.3-12.6S365.8,84.4,404.4,90c23.8,3.4,43.1,21.3,47.6,44.8c4.5,25.8,10,59.3,10,106.4
	C460.9,288.2,456,320.3,451.5,346.1z"/>
<path class="st1" d="M240,84c69.8,0,130.1,6.6,168.4,12.2c18.9,2.7,34,16.8,37.5,35c4.3,24.4,10,62.3,10,108.5
	c-1.3,52.6-6.8,90.9-10,108.9c-3.5,18.4-18.6,32.5-37.6,35.2C383.9,387.5,318.5,396,240,396c-73.5,0-137-7.6-168.4-12.2
	c-18.9-2.7-34-16.8-37.5-35c-4.1-23-8.9-60.6-8.9-108.8s4.8-85.8,8.9-108.6c3.5-18.4,18.6-32.5,37.6-35.2C96.2,92.5,161.6,84,240,84
	 M240,72c-70.3,0-132.7,6.7-170.1,12.3c-23.8,3.4-43.1,21.3-47.6,44.8c-4.5,25.8-9.1,63.8-9.1,110.9s4.5,85.1,9.1,110.9
	c4.5,23.5,23.8,41.4,47.6,44.8C108.5,401.3,170.8,408,240,408c70.3,0,132.7-6.7,170.1-12.3c23.8-3.4,43.1-21.3,47.6-44.8
	c4.5-25.8,9.1-63.8,10.2-110.9c0-47-5.7-85.1-10.2-110.9c-4.5-23.5-23.8-41.4-47.6-44.8C371.6,78.7,310.4,72,240,72L240,72z"/>
<polygon class="st2" points="192,312 192,168 324,240 "/>
</svg>
